<?xml version="1.0" encoding="UTF-8" standalone="no"?>
<!-- Created with Inkscape (http://www.inkscape.org/) -->

<svg
   xmlns:dc="http://purl.org/dc/elements/1.1/"
   xmlns:cc="http://creativecommons.org/ns#"
   xmlns:rdf="http://www.w3.org/1999/02/22-rdf-syntax-ns#"
   xmlns:svg="http://www.w3.org/2000/svg"
   xmlns="http://www.w3.org/2000/svg"
   xmlns:sodipodi="http://sodipodi.sourceforge.net/DTD/sodipodi-0.dtd"
   xmlns:inkscape="http://www.inkscape.org/namespaces/inkscape"
   width="45.282269"
   height="25.999994"
   id="svg2"
   version="1.1"
   inkscape:version="0.91 r13725"
   sodipodi:docname="Dok.svg">
  <defs
     id="defs4">
    <inkscape:perspective
       sodipodi:type="inkscape:persp3d"
       inkscape:vp_x="0 : 526.18109 : 1"
       inkscape:vp_y="0 : 1000 : 0"
       inkscape:vp_z="744.09448 : 526.18109 : 1"
       inkscape:persp3d-origin="372.04724 : 350.78739 : 1"
       id="perspective10" />
    <inkscape:perspective
       id="perspective2824"
       inkscape:persp3d-origin="0.5 : 0.33333333 : 1"
       inkscape:vp_z="1 : 0.5 : 1"
       inkscape:vp_y="0 : 1000 : 0"
       inkscape:vp_x="0 : 0.5 : 1"
       sodipodi:type="inkscape:persp3d" />
    <inkscape:perspective
       id="perspective2840"
       inkscape:persp3d-origin="0.5 : 0.33333333 : 1"
       inkscape:vp_z="1 : 0.5 : 1"
       inkscape:vp_y="0 : 1000 : 0"
       inkscape:vp_x="0 : 0.5 : 1"
       sodipodi:type="inkscape:persp3d" />
    <inkscape:perspective
       id="perspective2854"
       inkscape:persp3d-origin="0.5 : 0.33333333 : 1"
       inkscape:vp_z="1 : 0.5 : 1"
       inkscape:vp_y="0 : 1000 : 0"
       inkscape:vp_x="0 : 0.5 : 1"
       sodipodi:type="inkscape:persp3d" />
    <inkscape:perspective
       id="perspective2868"
       inkscape:persp3d-origin="0.5 : 0.33333333 : 1"
       inkscape:vp_z="1 : 0.5 : 1"
       inkscape:vp_y="0 : 1000 : 0"
       inkscape:vp_x="0 : 0.5 : 1"
       sodipodi:type="inkscape:persp3d" />
    <inkscape:perspective
       id="perspective2882"
       inkscape:persp3d-origin="0.5 : 0.33333333 : 1"
       inkscape:vp_z="1 : 0.5 : 1"
       inkscape:vp_y="0 : 1000 : 0"
       inkscape:vp_x="0 : 0.5 : 1"
       sodipodi:type="inkscape:persp3d" />
    <inkscape:perspective
       id="perspective2977"
       inkscape:persp3d-origin="0.5 : 0.33333333 : 1"
       inkscape:vp_z="1 : 0.5 : 1"
       inkscape:vp_y="0 : 1000 : 0"
       inkscape:vp_x="0 : 0.5 : 1"
       sodipodi:type="inkscape:persp3d" />
    <inkscape:perspective
       id="perspective3097"
       inkscape:persp3d-origin="0.5 : 0.33333333 : 1"
       inkscape:vp_z="1 : 0.5 : 1"
       inkscape:vp_y="0 : 1000 : 0"
       inkscape:vp_x="0 : 0.5 : 1"
       sodipodi:type="inkscape:persp3d" />
    <inkscape:perspective
       id="perspective3194"
       inkscape:persp3d-origin="0.5 : 0.33333333 : 1"
       inkscape:vp_z="1 : 0.5 : 1"
       inkscape:vp_y="0 : 1000 : 0"
       inkscape:vp_x="0 : 0.5 : 1"
       sodipodi:type="inkscape:persp3d" />
    <inkscape:perspective
       id="perspective3312"
       inkscape:persp3d-origin="0.5 : 0.33333333 : 1"
       inkscape:vp_z="1 : 0.5 : 1"
       inkscape:vp_y="0 : 1000 : 0"
       inkscape:vp_x="0 : 0.5 : 1"
       sodipodi:type="inkscape:persp3d" />
    <inkscape:perspective
       id="perspective3409"
       inkscape:persp3d-origin="0.5 : 0.33333333 : 1"
       inkscape:vp_z="1 : 0.5 : 1"
       inkscape:vp_y="0 : 1000 : 0"
       inkscape:vp_x="0 : 0.5 : 1"
       sodipodi:type="inkscape:persp3d" />
    <inkscape:perspective
       id="perspective3506"
       inkscape:persp3d-origin="0.5 : 0.33333333 : 1"
       inkscape:vp_z="1 : 0.5 : 1"
       inkscape:vp_y="0 : 1000 : 0"
       inkscape:vp_x="0 : 0.5 : 1"
       sodipodi:type="inkscape:persp3d" />
    <inkscape:perspective
       id="perspective3603"
       inkscape:persp3d-origin="0.5 : 0.33333333 : 1"
       inkscape:vp_z="1 : 0.5 : 1"
       inkscape:vp_y="0 : 1000 : 0"
       inkscape:vp_x="0 : 0.5 : 1"
       sodipodi:type="inkscape:persp3d" />
    <inkscape:perspective
       id="perspective3700"
       inkscape:persp3d-origin="0.5 : 0.33333333 : 1"
       inkscape:vp_z="1 : 0.5 : 1"
       inkscape:vp_y="0 : 1000 : 0"
       inkscape:vp_x="0 : 0.5 : 1"
       sodipodi:type="inkscape:persp3d" />
    <inkscape:perspective
       id="perspective3819"
       inkscape:persp3d-origin="0.5 : 0.33333333 : 1"
       inkscape:vp_z="1 : 0.5 : 1"
       inkscape:vp_y="0 : 1000 : 0"
       inkscape:vp_x="0 : 0.5 : 1"
       sodipodi:type="inkscape:persp3d" />
    <inkscape:perspective
       id="perspective3916"
       inkscape:persp3d-origin="0.5 : 0.33333333 : 1"
       inkscape:vp_z="1 : 0.5 : 1"
       inkscape:vp_y="0 : 1000 : 0"
       inkscape:vp_x="0 : 0.5 : 1"
       sodipodi:type="inkscape:persp3d" />
  </defs>
  <sodipodi:namedview
     id="base"
     pagecolor="#ffffff"
     bordercolor="#666666"
     borderopacity="1.0"
     inkscape:pageopacity="0.0"
     inkscape:pageshadow="2"
     inkscape:zoom="16.430272"
     inkscape:cx="20.906531"
     inkscape:cy="12.999997"
     inkscape:document-units="px"
     inkscape:current-layer="layer1"
     showgrid="false"
     inkscape:window-width="1855"
     inkscape:window-height="1056"
     inkscape:window-x="65"
     inkscape:window-y="24"
     inkscape:window-maximized="1"
     fit-margin-top="0"
     fit-margin-left="0"
     fit-margin-right="0"
     fit-margin-bottom="0"
     inkscape:snap-global="true" />
  <metadata
     id="metadata7">
    <rdf:RDF>
      <cc:Work
         rdf:about="">
        <dc:format>image/svg+xml</dc:format>
        <dc:type
           rdf:resource="http://purl.org/dc/dcmitype/StillImage" />
        <dc:title />
      </cc:Work>
    </rdf:RDF>
  </metadata>
  <g
     inkscape:label="Layer 1"
     inkscape:groupmode="layer"
     id="layer1"
     transform="translate(-364.76141,-366.29812)">
    <path
       style="fill:#2dc6c6;fill-opacity:1"
       d="m 403.43034,391.95306 c -0.21418,-0.23382 -0.46105,-0.70286 -0.64707,-1.22938 -0.25743,-0.72864 -0.30038,-1.00234 -0.29806,-1.89951 0.002,-0.59315 0.0514,-1.1098 0.11499,-1.1901 0.0618,-0.078 0.14473,-0.2816 0.18437,-0.45235 0.0397,-0.17075 0.16546,-0.50591 0.27957,-0.74479 0.16568,-0.34684 0.18398,-0.47823 0.0908,-0.65225 -0.29336,-0.54814 -0.022,-1.62176 0.46612,-1.84416 0.15968,-0.0728 0.25742,-0.26756 0.35439,-0.70633 0.0736,-0.33324 0.17051,-0.65245 0.21526,-0.70937 0.1688,-0.21468 0.33627,-1.74231 0.28654,-2.61375 -0.0527,-0.92334 -0.25612,-1.55123 -0.73714,-2.27528 -0.2574,-0.38743 -0.37979,-0.40423 -0.94738,-0.13006 -0.22768,0.10997 -0.46052,0.20224 -0.51744,0.20505 -0.0569,0.003 -0.59246,0.19429 -1.19009,0.42552 -0.59764,0.23124 -1.34274,0.50997 -1.65579,0.61942 -0.31304,0.10944 -0.66231,0.2448 -0.77615,0.3008 -0.11383,0.056 -0.71923,0.28679 -1.34532,0.51288 -1.92384,0.69474 -2.5787,0.93824 -2.79414,1.03898 -0.11383,0.0532 -0.67266,0.26562 -1.24184,0.47199 -0.56918,0.20636 -1.31428,0.48267 -1.65578,0.61401 -0.34151,0.13134 -0.73735,0.27285 -0.87964,0.31445 -0.14229,0.0416 -0.30529,0.11035 -0.3622,0.15276 -0.0569,0.0424 -0.35962,0.15931 -0.67267,0.25975 -0.31304,0.10044 -0.61574,0.21463 -0.67266,0.25377 -0.0569,0.0392 -0.29735,0.13222 -0.5343,0.20687 -0.38774,0.12215 -0.47568,0.11454 -0.87963,-0.0761 -0.76603,-0.36153 -1.76096,-0.81066 -2.5703,-1.16026 -0.79924,-0.34524 -1.21415,-0.53276 -2.63891,-1.19269 -0.45534,-0.2109 -1.54971,-0.70817 -2.43193,-1.10503 -0.88223,-0.39686 -1.79032,-0.8067 -2.01799,-0.91077 -0.22767,-0.10406 -0.64679,-0.29254 -0.93138,-0.41885 -0.28459,-0.1263 -0.8667,-0.39042 -1.29358,-0.58692 -1.06158,-0.48868 -1.48387,-0.68164 -2.32845,-1.06398 -0.39842,-0.18036 -0.91068,-0.41314 -1.13835,-0.51727 -0.22768,-0.10414 -0.6468,-0.29049 -0.93138,-0.41411 -0.51391,-0.22322 -0.72652,-0.31934 -2.01799,-0.91226 -0.36997,-0.16986 -0.99865,-0.45768 -1.39707,-0.6396 -0.39842,-0.18192 -0.95725,-0.4383 -1.24184,-0.56973 -1.19038,-0.54972 -1.71942,-0.77603 -1.81408,-0.77603 -0.0552,0 -0.10042,-0.0448 -0.10042,-0.0995 0,-0.0981 0.17164,-0.1549 1.39707,-0.46246 0.34151,-0.0857 1.06332,-0.271 1.60404,-0.41176 2.33607,-0.60811 3.104,-0.8038 3.93249,-1.00213 0.4838,-0.11582 0.97277,-0.25008 1.08661,-0.29835 0.11384,-0.0483 1.0685,-0.30738 2.12147,-0.57579 2.70338,-0.6891 3.68782,-0.94204 4.81242,-1.23652 2.20842,-0.57827 3.0477,-0.79654 3.98394,-1.03608 0.54072,-0.13834 1.44881,-0.37338 2.01799,-0.5223 0.56918,-0.14893 1.34485,-0.34381 1.72372,-0.43307 l 0.68886,-0.1623 0.8117,0.32655 c 0.44643,0.1796 0.85123,0.3263 0.89955,0.32599 0.0483,-3.1e-4 0.23458,0.0665 0.41394,0.14853 0.17935,0.082 0.83836,0.34235 1.46445,0.57857 0.6261,0.23621 1.23149,0.46965 1.34532,0.51874 0.57266,0.24694 3.43324,1.34077 3.50639,1.34077 0.0464,0 0.23111,0.0672 0.41047,0.14934 0.4316,0.19765 2.2185,0.88553 2.30034,0.88553 0.0353,0 0.21095,0.0671 0.39031,0.14908 0.17935,0.082 0.83836,0.34311 1.46445,0.58027 0.62609,0.23715 1.27806,0.49087 1.44881,0.56381 0.17075,0.0729 0.42688,0.16627 0.56918,0.20739 0.14229,0.0411 0.39842,0.13679 0.56917,0.21259 0.46174,0.20499 2.21062,0.87402 2.28471,0.87402 0.0353,0 0.21095,0.0672 0.3903,0.14934 0.41868,0.19173 2.2174,0.88553 2.2958,0.88553 0.0534,0 0.42226,0.15295 1.18664,0.49211 0.18969,0.0842 0.21003,0.11667 0.0762,0.1218 -0.10037,0.004 -0.26337,0.0527 -0.3622,0.10845 -0.20703,0.11688 -2.05765,0.82994 -2.15395,0.82994 -0.0353,0 -0.21094,0.064 -0.3903,0.14219 -0.17935,0.0782 -0.734,0.2946 -1.23255,0.48086 l -0.90645,0.33867 0.25598,0.43678 c 0.14078,0.24023 0.36208,0.71074 0.49176,1.04557 0.44743,1.15517 0.28702,3.03003 -0.45116,5.27335 l -0.20685,0.6286 0.22777,0.43699 c 0.29572,0.56736 0.2317,1.1564 -0.17144,1.57719 -0.15751,0.1644 -0.35365,0.29891 -0.43586,0.29891 -0.12131,0 -0.13975,0.14136 -0.0978,0.75028 0.0938,1.36345 0.86498,3.26526 1.57782,3.89114 0.25863,0.22708 0.31982,0.33629 0.22909,0.40888 -0.27713,0.22174 -1.70533,0.77903 -2.11553,0.82549 -0.40174,0.0455 -0.46915,0.0173 -0.78575,-0.3283 z m -17.42047,-1.8934 c -2.56153,-3.88126 -6.22136,-5.94045 -10.61455,-5.97225 l -1.42232,-0.0103 0.003,-0.62092 c 0.005,-1.00214 0.47113,-3.71468 0.71783,-4.17248 0.0515,-0.0957 0.17269,-0.39516 0.26919,-0.66552 0.0965,-0.27036 0.19435,-0.49156 0.21745,-0.49156 0.0231,0 0.3544,0.14364 0.73622,0.3192 0.38182,0.17556 0.88049,0.40447 1.10816,0.50869 0.22767,0.10423 0.73993,0.33928 1.13836,0.52234 0.91182,0.41896 2.21207,1.01233 2.48367,1.13345 0.11384,0.0507 0.56891,0.2578 1.01127,0.46009 0.44236,0.20229 0.82277,0.3678 0.84536,0.3678 0.0226,0 0.47561,0.20324 1.00672,0.45164 0.53111,0.2484 1.24507,0.57857 1.58658,0.73371 0.89852,0.40819 1.35862,0.61845 2.16184,0.98793 0.56676,0.26071 0.78967,0.31367 1.08661,0.25819 0.20547,-0.0384 0.42014,-0.10604 0.47706,-0.15033 0.0569,-0.0443 0.35962,-0.16271 0.67266,-0.26315 0.31305,-0.10044 0.61575,-0.21695 0.67267,-0.25892 0.0569,-0.042 0.28976,-0.13445 0.51743,-0.2055 0.22767,-0.0711 0.55365,-0.19011 0.7244,-0.26457 0.2781,-0.12125 1.40998,-0.54382 3.36332,-1.25562 0.36996,-0.13482 0.7658,-0.29058 0.87964,-0.34613 0.11383,-0.0556 0.4631,-0.19115 0.77615,-0.30131 0.31304,-0.11016 0.89515,-0.32223 1.29358,-0.47126 0.39842,-0.14903 1.00382,-0.36816 1.34532,-0.48695 0.34151,-0.11879 0.67588,-0.25903 0.74306,-0.31165 0.52356,-0.41014 0.93732,4.14829 0.56363,6.2093 l -0.13692,0.75509 -0.48139,-0.0707 c -0.26477,-0.0388 -0.59783,-0.11701 -0.74012,-0.17366 -0.37335,-0.14864 -3.45027,-0.21832 -4.24295,-0.0961 -0.81636,0.12588 -2.37582,0.51221 -2.52834,0.62635 -0.0608,0.0455 -0.32784,0.16296 -0.5934,0.26102 -0.40859,0.15086 -1.0655,0.48972 -1.82993,0.94397 -0.62691,0.37252 -2.07733,1.58619 -2.75914,2.30876 l -0.51849,0.5495 -0.5334,-0.80821 z"
       id="path3922"
       inkscape:connector-curvature="0" />
  </g>
</svg>
