<?xml version="1.0" encoding="UTF-8" standalone="no"?>
<svg
   xmlns:dc="http://purl.org/dc/elements/1.1/"
   xmlns:cc="http://creativecommons.org/ns#"
   xmlns:rdf="http://www.w3.org/1999/02/22-rdf-syntax-ns#"
   xmlns:svg="http://www.w3.org/2000/svg"
   xmlns="http://www.w3.org/2000/svg"
   xmlns:xlink="http://www.w3.org/1999/xlink"
   xmlns:sodipodi="http://sodipodi.sourceforge.net/DTD/sodipodi-0.dtd"
   xmlns:inkscape="http://www.inkscape.org/namespaces/inkscape"
   version="1.1"
   x="0px"
   y="0px"
   width="27.641px"
   height="20.461px"
   viewBox="0 0 27.641 20.461"
   enable-background="new 0 0 27.641 20.461"
   xml:space="preserve"
   id="svg2"
   inkscape:version="0.91 r13725"
   sodipodi:docname="Forscher.svg"><metadata
     id="metadata26"><rdf:RDF><cc:Work
         rdf:about=""><dc:format>image/svg+xml</dc:format><dc:type
           rdf:resource="http://purl.org/dc/dcmitype/StillImage" /></cc:Work></rdf:RDF></metadata><defs
     id="defs24" /><sodipodi:namedview
     pagecolor="#ffffff"
     bordercolor="#666666"
     borderopacity="1"
     objecttolerance="10"
     gridtolerance="10"
     guidetolerance="10"
     inkscape:pageopacity="0"
     inkscape:pageshadow="2"
     inkscape:window-width="640"
     inkscape:window-height="480"
     id="namedview22"
     showgrid="false"
     inkscape:zoom="11.323758"
     inkscape:cx="13.8205"
     inkscape:cy="10.2305"
     inkscape:window-x="75"
     inkscape:window-y="34"
     inkscape:window-maximized="0"
     inkscape:current-layer="svg2" /><g
     id="slices" /><g
     id="assets"
     style="fill:#2dc6c6;fill-opacity:1"><g
       id="g6"
       style="fill:#2dc6c6;fill-opacity:1"><defs
         id="defs8"><rect
           id="SVGID_27_"
           width="27.641"
           height="20.461" /></defs><clipPath
         id="SVGID_2_"><use
           xlink:href="#SVGID_27_"
           overflow="visible"
           id="use12" /></clipPath><path
         clip-path="url(#SVGID_2_)"
         fill="#EB7210"
         d="M13.078,12.708c0.832,0.668,3.302,1.278,5.285,2.41    c0.654,0.373,0.711,0.925,0.76,1.26c0.049,0.334,0.152,4.083,0.152,4.083H0c0,0,0.104-3.749,0.152-4.083    c0.05-0.335,0.054-0.842,0.76-1.26c1.965-1.166,4.443-1.703,5.275-2.371c0.33-0.267,0.244-0.695,0.317-1.106    c0.074-0.411,0.319-0.129,0.319-0.565c0-0.439,0.078-0.363,0.031-0.947C6.816,9.619,6.15,9.564,6.113,8.612    c-0.008-0.2-0.342-0.334-0.538-0.643S5.061,7.121,5.061,6.504S5.184,6.041,5.184,5.27S5.154,4.051,5.575,2.261    c0.155-0.667,0.688-1.45,1.221-1.804C7.514-0.021,7.227,0.616,9.639,0.05c1.565-0.367,4.016,1.337,4.041,2.7    c0.033,1.843,0.141,1.704,0.244,2.468c0.073,0.54,0.221,0.411,0.221,1.028c0,0.618-0.318,1.389-0.514,1.697    s-0.378,0.804-0.402,1.003c-0.129,1.029-0.783,0.792-0.811,1.344c-0.025,0.504-0.057,0.438,0.016,0.832    c0.061,0.328,0.242-0.021,0.315,0.39C12.822,11.924,12.771,12.529,13.078,12.708"
         id="path14"
         style="fill:#2dc6c6;fill-opacity:1" /><path
         clip-path="url(#SVGID_2_)"
         fill="#EB7210"
         d="M18.084,9.213c0.137,0.215,0.37,0.309,0.376,0.447    c0.026,0.665,0.49,0.703,0.519,1.059c0.031,0.407-0.023,0.353-0.023,0.66c0,0.305-0.171,0.107-0.222,0.395    c-0.052,0.286,0.009,0.586-0.222,0.771c-0.262,0.21-0.752,0.404-1.338,0.629c0.844,0.329,1.772,0.716,2.646,1.197    c0.943,0.518,0.962,1.157,1.035,1.653c0.025,0.176,0.041,3.537,0.07,4.437h6.713c0,0-0.071-5.149-0.105-5.384    c-0.034-0.232-0.059-0.607-0.529-0.879c-1.38-0.793-3.105-1.215-3.686-1.68c-0.215-0.126-0.18-0.548-0.229-0.835    c-0.053-0.286-0.18-0.043-0.222-0.272c-0.05-0.273-0.028-0.229-0.011-0.579c0.019-0.386,0.476-0.22,0.564-0.938    c0.018-0.139,0.146-0.485,0.281-0.7c0.137-0.215,0.357-0.753,0.357-1.184c0-0.43-0.102-0.34-0.152-0.717    c-0.073-0.533-0.148-0.437-0.171-1.723c-0.017-0.949-1.728-2.139-2.817-1.883c-1.685,0.396-1.482-0.049-1.984,0.284    c-0.371,0.247-0.742,0.793-0.852,1.259c-0.293,1.248-0.273,1.561-0.273,2.099c0,0.537-0.086,0.431-0.086,0.86    C17.725,8.621,17.947,8.998,18.084,9.213"
         id="path16"
         style="fill:#2dc6c6;fill-opacity:1" /><path
         clip-path="url(#SVGID_2_)"
         fill="#EB7210"
         d="M20.578,3.394c0,0,1.668-0.912,2.887,0.512    c1.217,1.425,0.451,5.697,0.974,5.844c0.521,0.146,0.938,0,0.938,0s-0.891,1.918-2.219,0.703s-4.076-0.813-4.076-0.813    S20.021,3.394,20.578,3.394"
         id="path18"
         style="fill:#2dc6c6;fill-opacity:1" /><path
         clip-path="url(#SVGID_2_)"
         fill="#EB7210"
         d="M20.911,3.394c0,0-1.669-0.912-2.887,0.512    c-1.218,1.425-0.452,5.697-0.974,5.844c-0.521,0.146-0.939,0-0.939,0s0.891,1.918,2.219,0.703    c1.329-1.215,4.077-0.813,4.077-0.813S21.469,3.394,20.911,3.394"
         id="path20"
         style="fill:#2dc6c6;fill-opacity:1" /></g></g></svg>