<?xml version="1.0" encoding="UTF-8" standalone="no"?>
<svg
   xmlns:dc="http://purl.org/dc/elements/1.1/"
   xmlns:cc="http://creativecommons.org/ns#"
   xmlns:rdf="http://www.w3.org/1999/02/22-rdf-syntax-ns#"
   xmlns:svg="http://www.w3.org/2000/svg"
   xmlns="http://www.w3.org/2000/svg"
   xmlns:xlink="http://www.w3.org/1999/xlink"
   xmlns:sodipodi="http://sodipodi.sourceforge.net/DTD/sodipodi-0.dtd"
   xmlns:inkscape="http://www.inkscape.org/namespaces/inkscape"
   version="1.1"
   x="0px"
   y="0px"
   width="36.723px"
   height="26.615px"
   viewBox="0 0 36.723 26.615"
   enable-background="new 0 0 36.723 26.615"
   xml:space="preserve"
   id="svg2"
   inkscape:version="0.91 r13725"
   sodipodi:docname="Gruppe.svg"><metadata
     id="metadata38"><rdf:RDF><cc:Work
         rdf:about=""><dc:format>image/svg+xml</dc:format><dc:type
           rdf:resource="http://purl.org/dc/dcmitype/StillImage" /></cc:Work></rdf:RDF></metadata><defs
     id="defs36" /><sodipodi:namedview
     pagecolor="#ffffff"
     bordercolor="#666666"
     borderopacity="1"
     objecttolerance="10"
     gridtolerance="10"
     guidetolerance="10"
     inkscape:pageopacity="0"
     inkscape:pageshadow="2"
     inkscape:window-width="640"
     inkscape:window-height="480"
     id="namedview34"
     showgrid="false"
     inkscape:zoom="8.5232689"
     inkscape:cx="18.3615"
     inkscape:cy="13.3075"
     inkscape:window-x="75"
     inkscape:window-y="34"
     inkscape:window-maximized="0"
     inkscape:current-layer="svg2" /><g
     id="slices" /><g
     id="assets"
     style="fill:#2dc6c6;fill-opacity:1"><g
       id="g6"
       style="fill:#2dc6c6;fill-opacity:1"><defs
         id="defs8"><rect
           id="SVGID_37_"
           width="36.723"
           height="26.615" /></defs><clipPath
         id="SVGID_2_"><use
           xlink:href="#SVGID_37_"
           overflow="visible"
           id="use12" /></clipPath><path
         clip-path="url(#SVGID_2_)"
         fill="#EB7210"
         d="M33.68,8.762c-1.025,0-1.855,0.82-1.855,1.828c0,1.007,0.83,1.828,1.855,1.828    c1.02,0,1.852-0.821,1.852-1.828C35.531,9.582,34.699,8.762,33.68,8.762"
         id="path14"
         style="fill:#2dc6c6;fill-opacity:1" /><path
         clip-path="url(#SVGID_2_)"
         fill="#EB7210"
         d="M3.047,8.762c-1.024,0-1.856,0.82-1.856,1.828    c0,1.007,0.832,1.828,1.856,1.828c1.021,0,1.852-0.821,1.852-1.828C4.898,9.582,4.067,8.762,3.047,8.762"
         id="path16"
         style="fill:#2dc6c6;fill-opacity:1" /><path
         clip-path="url(#SVGID_2_)"
         fill="#EB7210"
         d="M27.166,5.437c-1.521,0-2.754,1.222-2.754,2.723    c0,1.499,1.233,2.719,2.754,2.719c1.521,0,2.76-1.22,2.76-2.719C29.924,6.658,28.688,5.437,27.166,5.437"
         id="path18"
         style="fill:#2dc6c6;fill-opacity:1" /><path
         clip-path="url(#SVGID_2_)"
         fill="#EB7210"
         d="M36.723,21.979h-3.142v-5.705c0-0.982-0.292-1.891-0.761-2.683    c0.275-0.08,0.56-0.137,0.859-0.137c1.674,0,3.043,1.35,3.043,3.007V21.979z"
         id="path20"
         style="fill:#2dc6c6;fill-opacity:1" /><path
         clip-path="url(#SVGID_2_)"
         fill="#EB7210"
         d="M9.556,5.437c-1.521,0-2.759,1.222-2.759,2.723    c0,1.499,1.236,2.719,2.759,2.719c1.517,0,2.755-1.22,2.755-2.719C12.311,6.658,11.072,5.437,9.556,5.437"
         id="path22"
         style="fill:#2dc6c6;fill-opacity:1" /><path
         clip-path="url(#SVGID_2_)"
         fill="#EB7210"
         d="M3.047,13.455c0.299,0,0.58,0.057,0.854,0.137    c-0.474,0.792-0.76,1.7-0.76,2.683v5.705H0v-5.518C0,14.806,1.367,13.455,3.047,13.455"
         id="path24"
         style="fill:#2dc6c6;fill-opacity:1" /><path
         clip-path="url(#SVGID_2_)"
         fill="#EB7210"
         d="M18.359,0.001c-2.246,0-4.075,1.804-4.075,4.021    c0,2.219,1.829,4.025,4.075,4.025s4.078-1.807,4.078-4.025C22.438,1.805,20.605,0.001,18.359,0.001"
         id="path26"
         style="fill:#2dc6c6;fill-opacity:1" /><path
         clip-path="url(#SVGID_2_)"
         fill="#EB7210"
         d="M31.572,24.103H26.76v-8.679c0-1.194-0.318-2.304-0.835-3.3    c0.394-0.115,0.808-0.196,1.241-0.196c2.428,0,4.406,1.95,4.406,4.347V24.103z"
         id="path28"
         style="fill:#2dc6c6;fill-opacity:1" /><path
         clip-path="url(#SVGID_2_)"
         fill="#EB7210"
         d="M9.958,15.423v8.681H5.15v-7.829c0-2.397,1.974-4.347,4.406-4.347    c0.432,0,0.842,0.081,1.236,0.195C10.277,13.119,9.958,14.229,9.958,15.423"
         id="path30"
         style="fill:#2dc6c6;fill-opacity:1" /><path
         clip-path="url(#SVGID_2_)"
         fill="#EB7210"
         d="M11.967,26.615h12.785V15.423c0-3.478-2.87-6.307-6.393-6.307    c-3.527,0-6.393,2.829-6.393,6.307V26.615z"
         id="path32"
         style="fill:#2dc6c6;fill-opacity:1" /></g></g></svg>