<?xml version="1.0" encoding="UTF-8" standalone="no"?>
<svg
   xmlns:dc="http://purl.org/dc/elements/1.1/"
   xmlns:cc="http://creativecommons.org/ns#"
   xmlns:rdf="http://www.w3.org/1999/02/22-rdf-syntax-ns#"
   xmlns:svg="http://www.w3.org/2000/svg"
   xmlns="http://www.w3.org/2000/svg"
   xmlns:sodipodi="http://sodipodi.sourceforge.net/DTD/sodipodi-0.dtd"
   xmlns:inkscape="http://www.inkscape.org/namespaces/inkscape"
   version="1.1"
   x="0px"
   y="0px"
   width="24.787px"
   height="38.326px"
   viewBox="0 0 24.787 38.326"
   enable-background="new 0 0 24.787 38.326"
   xml:space="preserve"
   id="svg2"
   inkscape:version="0.91 r13725"
   sodipodi:docname="Info.svg"><metadata
     id="metadata16"><rdf:RDF><cc:Work
         rdf:about=""><dc:format>image/svg+xml</dc:format><dc:type
           rdf:resource="http://purl.org/dc/dcmitype/StillImage" /><dc:title /></cc:Work></rdf:RDF></metadata><defs
     id="defs14" /><sodipodi:namedview
     pagecolor="#ffffff"
     bordercolor="#666666"
     borderopacity="1"
     objecttolerance="10"
     gridtolerance="10"
     guidetolerance="10"
     inkscape:pageopacity="0"
     inkscape:pageshadow="2"
     inkscape:window-width="1099"
     inkscape:window-height="777"
     id="namedview12"
     showgrid="false"
     inkscape:zoom="15.87532"
     inkscape:cx="17.808398"
     inkscape:cy="19.163"
     inkscape:window-x="75"
     inkscape:window-y="34"
     inkscape:window-maximized="0"
     inkscape:current-layer="svg2"
     inkscape:snap-text-baseline="true" /><g
     id="slices" /><g
     style="font-style:normal;font-variant:normal;font-weight:bold;font-stretch:normal;font-size:40px;line-height:125%;font-family:Sans;-inkscape-font-specification:'Sans, Bold';text-align:start;letter-spacing:0px;word-spacing:0px;writing-mode:lr-tb;text-anchor:start;fill:#2dc6c6;fill-opacity:1;stroke:none;stroke-width:1px;stroke-linecap:butt;stroke-linejoin:miter;stroke-opacity:1"
     id="text4160"><path
       d="m 14.822047,23.447903 -7.0507813,0 0,-0.957032 q 0,-1.601562 0.6445312,-2.832031 0.6445313,-1.25 2.7148441,-3.164062 l 1.25,-1.132813 q 1.113281,-1.015625 1.621093,-1.914062 0.527344,-0.898438 0.527344,-1.796875 0,-1.367188 -0.9375,-2.1289066 -0.9375,-0.78125 -2.617187,-0.78125 -1.5820316,0 -3.4179691,0.6640625 -1.8359375,0.6445311 -3.828125,1.9335941 l 0,-6.1328128 q 2.3632813,-0.8203125 4.3164063,-1.2109375 1.953125,-0.390625 3.7695308,-0.390625 4.765625,0 7.265625,1.953125 2.5,1.9335937 2.5,5.6640623 0,1.914063 -0.761718,3.4375 -0.761719,1.503906 -2.597657,3.242188 l -1.25,1.113281 q -1.328125,1.210937 -1.738281,1.953125 -0.410156,0.722656 -0.410156,1.601562 l 0,0.878907 z m -7.0507813,2.890625 7.0507813,0 0,6.953125 -7.0507813,0 0,-6.953125 z"
       style=""
       id="path3336" /></g></svg>