<?xml version="1.0" encoding="UTF-8" standalone="no"?>
<svg
   xmlns:dc="http://purl.org/dc/elements/1.1/"
   xmlns:cc="http://creativecommons.org/ns#"
   xmlns:rdf="http://www.w3.org/1999/02/22-rdf-syntax-ns#"
   xmlns:svg="http://www.w3.org/2000/svg"
   xmlns="http://www.w3.org/2000/svg"
   xmlns:sodipodi="http://sodipodi.sourceforge.net/DTD/sodipodi-0.dtd"
   xmlns:inkscape="http://www.inkscape.org/namespaces/inkscape"
   version="1.1"
   x="0px"
   y="0px"
   width="24.787px"
   height="38.326px"
   viewBox="0 0 24.787 38.326"
   enable-background="new 0 0 24.787 38.326"
   xml:space="preserve"
   id="svg2"
   inkscape:version="0.91 r13725"
   sodipodi:docname="Projekt.svg"><metadata
     id="metadata16"><rdf:RDF><cc:Work
         rdf:about=""><dc:format>image/svg+xml</dc:format><dc:type
           rdf:resource="http://purl.org/dc/dcmitype/StillImage" /></cc:Work></rdf:RDF></metadata><defs
     id="defs14" /><sodipodi:namedview
     pagecolor="#ffffff"
     bordercolor="#666666"
     borderopacity="1"
     objecttolerance="10"
     gridtolerance="10"
     guidetolerance="10"
     inkscape:pageopacity="0"
     inkscape:pageshadow="2"
     inkscape:window-width="640"
     inkscape:window-height="480"
     id="namedview12"
     showgrid="false"
     inkscape:zoom="6.1576997"
     inkscape:cx="12.3935"
     inkscape:cy="19.163"
     inkscape:window-x="75"
     inkscape:window-y="34"
     inkscape:window-maximized="0"
     inkscape:current-layer="svg2" /><g
     id="slices" /><g
     id="assets"
     style="fill:#2dc6c6;fill-opacity:0.99591839"><polygon
       fill="#EB7210"
       points="-0.001,29.837 -0.001,30.837 11.578,30.837 8.518,35.837 9.943,35.837 13.026,30.837 13.3,30.837    16.512,35.837 17.974,35.837 14.678,30.837 24.842,30.837 24.842,29.837  "
       id="polygon6"
       style="fill:#2dc6c6;fill-opacity:0.99591839" /><path
       fill="#EB7210"
       d="M0,5.837v22h24.787v-22H0z M7.476,25.03c-2.371,0-4.559-2.328-4.559-4.908c0-2.579,2.041-4.907,4.024-4.907   v5.622h4.828C11.768,22.837,9.848,25.03,7.476,25.03z M21.812,23.837h-8.923v-3h8.923V23.837z M21.812,19.837h-8.923v-3h8.923   V19.837z M21.812,11.837H2.975v-3h18.838V11.837z"
       id="path8"
       style="fill:#2dc6c6;fill-opacity:0.99591839" /><polygon
       fill="#EB7210"
       points="12,1.169 12,2.947 11,2.947 11,3.837 15,3.837 15,2.947 14,2.947 14,1.169  "
       id="polygon10"
       style="fill:#2dc6c6;fill-opacity:0.99591839" /></g></svg>