<?xml version="1.0" encoding="UTF-8" standalone="no"?>
<svg
   xmlns:dc="http://purl.org/dc/elements/1.1/"
   xmlns:cc="http://creativecommons.org/ns#"
   xmlns:rdf="http://www.w3.org/1999/02/22-rdf-syntax-ns#"
   xmlns:svg="http://www.w3.org/2000/svg"
   xmlns="http://www.w3.org/2000/svg"
   xmlns:xlink="http://www.w3.org/1999/xlink"
   xmlns:sodipodi="http://sodipodi.sourceforge.net/DTD/sodipodi-0.dtd"
   xmlns:inkscape="http://www.inkscape.org/namespaces/inkscape"
   version="1.1"
   x="0px"
   y="0px"
   width="35.428px"
   height="35.427px"
   viewBox="0 0 35.428 35.427"
   enable-background="new 0 0 35.428 35.427"
   xml:space="preserve"
   id="svg2"
   inkscape:version="0.91 r13725"
   sodipodi:docname="Publikation2.svg"><metadata
     id="metadata26"><rdf:RDF><cc:Work
         rdf:about=""><dc:format>image/svg+xml</dc:format><dc:type
           rdf:resource="http://purl.org/dc/dcmitype/StillImage" /></cc:Work></rdf:RDF></metadata><defs
     id="defs24" /><sodipodi:namedview
     pagecolor="#ffffff"
     bordercolor="#666666"
     borderopacity="1"
     objecttolerance="10"
     gridtolerance="10"
     guidetolerance="10"
     inkscape:pageopacity="0"
     inkscape:pageshadow="2"
     inkscape:window-width="640"
     inkscape:window-height="480"
     id="namedview22"
     showgrid="false"
     inkscape:zoom="9.445921"
     inkscape:cx="17.714001"
     inkscape:cy="17.713499"
     inkscape:window-x="75"
     inkscape:window-y="24"
     inkscape:window-maximized="0"
     inkscape:current-layer="svg2" /><g
     id="slices" /><g
     id="g8"
     style="fill:#2dc6c6;fill-opacity:1"><defs
       id="defs10"><rect
         id="SVGID_15_"
         width="35.428001"
         height="35.426998"
         x="0"
         y="0" /></defs><clipPath
       id="SVGID_2_"><use
         xlink:href="#SVGID_15_"
         overflow="visible"
         id="use14"
         style="overflow:visible"
         x="0"
         y="0"
         width="100%"
         height="100%" /></clipPath><path
       clip-path="url(#SVGID_2_)"
       d="m 17.714,35.427 c 9.782,0 17.714,-7.93 17.714,-17.713 C 35.428,7.931 27.496,0 17.714,0 7.931,0 0,7.931 0,17.714 0,27.498 7.931,35.427 17.714,35.427"
       id="path16"
       inkscape:connector-curvature="0"
       style="fill:#2dc6c6;fill-opacity:1" /></g><polygon
     points="25.711,19.862 20.062,26.199 19.418,28.236 26.953,19.786 16.571,8.145 15.153,9.734 15.74,10.392 16.504,9.537 "
     id="polygon18"
     style="fill:#ffffff" /><polygon
     points="8.475,17.224 18.855,28.865 19.5,26.828 22.225,18.204 15.499,10.663 14.912,10.005 11.844,6.562 "
     id="polygon20"
     style="fill:#ffffff" /></svg>